<svg width="48" height="48" viewBox="0 0 48 48" fill="none" xmlns="http://www.w3.org/2000/svg">
<g id="Frame 12">
<g id="Union">
<path d="M27.9997 16.6523C28.8113 16.6522 29.4693 17.3101 29.4694 18.1217L29.4702 24.6087L24.8889 29.1907C24.3151 29.7647 23.3846 29.7647 22.8107 29.1909C22.2367 28.617 22.2367 27.6866 22.8105 27.1126L26.531 23.3916L26.5303 18.1221C26.5302 17.3105 27.1881 16.6524 27.9997 16.6523Z" fill="currentColor"/>
<path fill-rule="evenodd" clip-rule="evenodd" d="M28 11C20.8203 11 15 16.8203 15 24C15 31.1797 20.8203 37 28 37C35.1797 37 41 31.1797 41 24C41 16.8203 35.1797 11 28 11ZM17.9391 24C17.9391 18.4435 22.4435 13.9391 28 13.9391C33.5565 13.9391 38.0609 18.4435 38.0609 24C38.0609 29.5565 33.5565 34.0609 28 34.0609C22.4435 34.0609 17.9391 29.5565 17.9391 24Z" fill="currentColor"/>
<path d="M5.22461 19.3465H14.0525C14.3427 18.4913 14.7108 17.6721 15.1482 16.8973H5.22461C4.54828 16.8973 4 17.4455 4 18.1219C4 18.7982 4.54828 19.3465 5.22461 19.3465Z" fill="currentColor"/>
<path d="M13.2879 24C13.2879 23.2506 13.3449 22.5144 13.4547 21.7957H7.18399C6.50765 21.7957 5.95938 22.344 5.95938 23.0203C5.95938 23.6966 6.50765 24.2449 7.18399 24.2449H13.2899C13.2886 24.1634 13.2879 24.0818 13.2879 24Z" fill="currentColor"/>
<path d="M13.5383 26.6941C13.6973 27.5388 13.9298 28.3575 14.2287 29.1434H9.14336C8.46703 29.1434 7.91875 28.5951 7.91875 27.9188C7.91875 27.2424 8.46703 26.6941 9.14336 26.6941H13.5383Z" fill="currentColor"/>
</g>
</g>
</svg>
