<svg width="48" height="48" viewBox="0 0 48 48" fill="none" xmlns="http://www.w3.org/2000/svg">
<g id="Frame 12">
<path id="Star 2" d="M23.072 16.3108C23.4079 15.4744 24.5921 15.4744 24.928 16.3108L26.3523 19.8577C26.4953 20.2139 26.8297 20.4568 27.2126 20.4828L31.0261 20.7414C31.9254 20.8023 32.2913 21.9285 31.5996 22.5065L28.6664 24.9571C28.3719 25.2033 28.2442 25.5963 28.3378 25.9685L29.2703 29.6752C29.4902 30.5494 28.5322 31.2454 27.7688 30.7661L24.5317 28.7338C24.2066 28.5297 23.7934 28.5297 23.4683 28.7338L20.2312 30.7661C19.4678 31.2454 18.5098 30.5494 18.7297 29.6752L19.6622 25.9685C19.7558 25.5963 19.6281 25.2033 19.3336 24.9571L16.4004 22.5065C15.7087 21.9285 16.0746 20.8023 16.9739 20.7414L20.7874 20.4828C21.1703 20.4568 21.5047 20.2139 21.6477 19.8577L23.072 16.3108Z" fill="currentColor"/>
<path id="Union" fill-rule="evenodd" clip-rule="evenodd" d="M10 24C10 16.268 16.268 10 24 10C31.732 10 38 16.268 38 24C38 31.732 31.732 38 24 38C16.268 38 10 31.732 10 24Z" stroke="currentColor" stroke-width="3"/>
</g>
</svg>
