<svg width="48" height="48" viewBox="0 0 48 48" fill="none" xmlns="http://www.w3.org/2000/svg">
<g id="Frame 13">
<path id="Ellipse 2" d="M42.4776 31.6537C43.4827 29.2272 44 26.6264 44 24C44 21.3736 43.4827 18.7729 42.4776 16.3463C41.4725 13.9198 39.9993 11.715 38.1421 9.85787C36.285 8.0007 34.0802 6.52751 31.6537 5.52241C29.2272 4.51732 26.6264 4 24 4C21.3736 4 18.7729 4.51731 16.3463 5.52241C13.9198 6.5275 11.715 8.00069 9.85787 9.85786C8.0007 11.715 6.52751 13.9198 5.52241 16.3463C4.51732 18.7728 4 21.3736 4 24C4 26.6264 4.51731 29.2272 5.52241 31.6537C6.5275 34.0802 8.00069 36.285 9.85786 38.1421C11.715 39.9993 13.9198 41.4725 16.3463 42.4776C18.7728 43.4827 21.3736 44 24 44C26.6264 44 29.2272 43.4827 31.6537 42.4776C34.0802 41.4725 36.285 39.9993 38.1421 38.1421C39.9993 36.285 41.4725 34.0802 42.4776 31.6537Z" fill="var(--global-white)"/>
<path id="&#226;&#156;&#147;" d="M16 25.6542L18.9234 22.6449L22.2598 26.014L30.0766 18L33 21.0093L22.2598 32L16 25.6542Z" fill="var(--col-s-primary)"/>
</g>
</svg>
